<svg xmlns="http://www.w3.org/2000/svg" xmlns:xlink="http://www.w3.org/1999/xlink" width="259.238" height="97.753" viewBox="0 0 259.238 97.753"><defs><style>.a{fill:url(#a);}.b,.c{fill:#fff;}.b{opacity:0.332;}.d{fill:#c0b1d5;font-size:20px;font-family:AppleSDGothicNeo-Regular, Apple SD Gothic Neo;letter-spacing:0.22em;}.e{filter:url(#b);}</style><linearGradient id="a" x1="0.5" x2="0.5" y2="1" gradientUnits="objectBoundingBox"><stop offset="0" stop-color="#fcb899"/><stop offset="1" stop-color="#b190f2"/></linearGradient><filter id="b" x="0" y="0" width="97.753" height="97.753" filterUnits="userSpaceOnUse"><feOffset dy="6" input="SourceAlpha"/><feGaussianBlur stdDeviation="9" result="c"/><feFlood flood-opacity="0.059"/><feComposite operator="in" in2="c"/><feComposite in="SourceGraphic"/></filter></defs><g transform="translate(16.238 10.141)"><rect class="a" width="64" height="64" rx="32"/><path class="b" d="M27.161,61.463h0a31.971,31.971,0,0,1-4.067-.766l-.691-1.21.233-2.827-1.265-1.682.512-2.851-.752-.209V45.734c-.021-.015-2.109-1.593-2.231-1.593s-1.106-.267-1.116-.27L17.572,42.7l-2.742-3.424.272-1.229.09-2.012,1.9-1.322-.271-2.253-2.772-.207-2.17-2.462-1.537-.424-.994-.183.12-.9L8.2,28.106v.51L5.033,27.83,3.759,25.889l.518-.941-2-2.914L1.931,19.9H1.117l.269,2.07L2.772,24.1l-.151.841-1.174-.181L0,22.311v-.205A32.039,32.039,0,0,1,14.547,2.33l.191.041.12.6,2.443.09-.331-.78L14.8,2.22l.118-.111a32.011,32.011,0,0,1,3.118-1.6l.289.4,1.6.089.964-.931.724.36L20.282,1.71c-1.616.029-1.748.033-1.751.034h0A5.8,5.8,0,0,1,18.687,3l2.228-.062.241-.6,1.536-.092.181-.9-.9-.152.3-.81.692-.21L25.374.3,24.044,1.5l.214.93,1.386.211-.09-1.68L26.881.27,29.232,0l3.4,1.5V2.793l1.085.27-.545,1.021H31.64l-.455,1.17-3.508-.824,2.76-1.465-1.051-.891L27,2.373l-.208.215-.008,0-.036.05-.686.71-1.134.093.09.563.4.163-.016.185-.923.13-.068.533-.881.045L23.371,4l-1.581.479L18.557,6.362,18.92,7.69l.9.588,1.807.247v2.047l.835-.133.77-1.6,1.922-.606V5.778l1.069-.8,2.584.607L28.63,7.2h.693l1.9-.93L31.315,8.4l1.383.841-.059,1.263-1.325.449.09.418L33,12.1l-.033.869-.462.04a.1.1,0,0,0-.005-.023l-2.015-.619-.085-.644.588-.4v-.587l-.634-.159-.158.542-1.111.172-.111-.036V11.3l-.385.058-.313-.631-.363-.159h-.792l-.359.3v.653l.677.225.668.094-.149.066-.61.674-.268-.337-.59-.156-1.607,1.5.21.172-2.372,1.308-2.231,2.312-.153,1.029L18.1,19.876l-1.108,1.11.122,2.221-1.537-.713.012-1.3H11.314L9.1,22.314,8.136,24.08l-.382,1.4.623,1.359,1.746.212L12.9,25.205l.243.915-.847,1.593,2.111.36.212,3.247,2.893.49,1.839-2.117,2.231.452.784,1.085,2.139-.126.059-.629,1.176.568,1.327,2.07,2.29.031.845,1.473.12,1.8,2.533.96,3.194.032.935,1.528,1.416.453-.271,1.264L36.573,42.62l-.453,4.349-1.4,1.1-2.078-.061-.693,1.2.515,2.255L30.2,54.347l-.722,1.323L27.322,56.7l-1.417.215-.059.6,1,.283-.12.646-.891.854.541.68,1.072.03-.059.823-.223.632ZM57.414,47.891V46.44l-1.057-1.049-.094-1.2,1.344-2.551-2.543-4.475.3-3.037-2.29-.235-.843-.841H50.69l-.782.719H47.194l-.092.24H45.594l-3.462-3.931.028-3.063.572-.209.213-1.172h-.814L41.8,24.406l4.007-2.881V19.483L47.767,18.4l.795.079h1.613l1.264-.676,4.069-.315v2.071l3.218.813.631.45h.588V19.692l1.48-.143a32.049,32.049,0,0,1-4.008,28.339ZM47.731,17.737h0l-1-.468-.3-1.987.362-.947,1.709-.373,1.864.373.229-1.028-.792-.186.27-1.6,1.876-.292,1.312-1.846,1.354-.226,1.114.165a32.121,32.121,0,0,1,3.362,4.924l-.735-.631-.5-.495H56.286l.493,1.393,1.889,1.049.328.346-.41.2.019,1.1-.921.383-.786-.171-.491-.693,1.279.067.345-.464-2.83-1.9-.218-.811-1.149,1.037-1.166-.238-1.774,2.3-.35.9-1.135.1Zm12.632-.922-.6-.636-.029-.707c.226.454.437.905.63,1.341ZM26.135,14.247h0l.04-.522.337-.419.455.355-.077.525-.754.063Zm1.749-.146h0c-.021-.14-.034-.25-.035-.262H27.6V13.3h1.04l.214-.552.413-.007.472.1-.2.418-.516.044-.1.5-.4.247-.636.054Zm22.187-3.129H49.017l.119-1.246.877-.18-.074-.586-.817-.51-.571-.39,0-.572.33-.509,1.192-.24.3,1.442.634,1.02.421.482.768.3-.724.858Zm-2.637-.482h-.841v-.75l.727-1.156.976-.227.694.3-.063.78L47.434,10.49Z" transform="translate(0.925 2.296)"/><g class="e" transform="matrix(1, 0, 0, 1, -16.24, -10.14)"><path class="c" d="M33.376,7.212a10.338,10.338,0,0,0,2.348-5.457A2.018,2.018,0,0,0,35.448.641a.89.89,0,0,0-.162-.208A.936.936,0,0,0,35.1.285,1.987,1.987,0,0,0,33.966,0a10.311,10.311,0,0,0-5.454,2.348A47.011,47.011,0,0,0,23.14,7.524q-.559.589-1.18,1.239L17.7,7.488l.013-.012a.954.954,0,0,0,0-1.344l-.769-.77a.957.957,0,0,0-.676-.281.94.94,0,0,0-.674.279l-1.15,1.15-.609-.182a.953.953,0,0,0-.076-1.258L12.989,4.3a.956.956,0,0,0-.676-.278.933.933,0,0,0-.67.279L10.587,5.355l-4.327-1.3a1.083,1.083,0,0,0-.309-.044,1.146,1.146,0,0,0-.8.324L3.629,5.861a.9.9,0,0,0-.268.628.874.874,0,0,0,.464.783l9.1,5.083a1.587,1.587,0,0,1,.221.168l2.594,2.594c-2.426,2.556-4.588,5.032-6.273,7.186-.157.2-.306.4-.453.589l-7.04-.639a.953.953,0,0,0-.121-.007,1.3,1.3,0,0,0-.872.361l-.709.709A.881.881,0,0,0,0,23.94a.865.865,0,0,0,.512.8l4.952,2.352a1.157,1.157,0,0,1,.19.136l.411.408a3.005,3.005,0,0,0-.2.952,1.25,1.25,0,0,0,.345.912l.018.015,0,0a1.254,1.254,0,0,0,.911.342,3.031,3.031,0,0,0,.944-.2l.417.417a1.128,1.128,0,0,1,.13.186L10.984,35.2a.874.874,0,0,0,.789.52h0a.88.88,0,0,0,.626-.264l.726-.729a1.3,1.3,0,0,0,.347-.87c0-.04,0-.071,0-.088l-.641-7.065c.193-.145.388-.295.589-.451,2.157-1.687,4.633-3.851,7.185-6.273l2.6,2.6a1.391,1.391,0,0,1,.169.223l5.074,9.083a.884.884,0,0,0,1.416.208l1.532-1.531a1.162,1.162,0,0,0,.314-.8,1.1,1.1,0,0,0-.041-.3l-1.3-4.328,1.055-1.056a.954.954,0,0,0,0-1.346l-.773-.773a.954.954,0,0,0-1.258-.079l-.181-.606,1.151-1.151a.961.961,0,0,0,.278-.675.941.941,0,0,0-.278-.672l-.77-.77a.953.953,0,0,0-1.352,0l-.008.007-1.275-4.255c.44-.42.858-.819,1.258-1.2A46.833,46.833,0,0,0,33.376,7.212Z" transform="matrix(0.97, -0.26, 0.26, 0.97, 27, 30.25)"/></g><text class="d" transform="translate(84 38.159)"><tspan x="0" y="0">UNS FLIGHTS</tspan></text></g></svg>